<?xml version="1.0" encoding="UTF-8"?>
<svg id="Layer_1" data-name="Layer 1" xmlns="http://www.w3.org/2000/svg" viewBox="0 0 63.91 16.86">
  <defs>
    <style>
      .cls-1 {
        fill: #23b082;
      }

      .cls-1, .cls-2, .cls-3, .cls-4 {
        stroke-width: 0px;
      }

      .cls-2 {
        fill: #333;
      }

      .cls-3 {
        fill: #fff;
      }

      .cls-4 {
        fill: #223e80;
      }
    </style>
  </defs>
  <rect class="cls-4" x="5.66" y="6.3" width="2.42" height="2.42"/>
  <rect class="cls-1" x="5.66" y="3.36" width="2.42" height="2.42"/>
  <rect class="cls-1" x="5.66" y=".46" width="2.42" height="2.42"/>
  <rect class="cls-3" x="2.83" y="3.38" width="2.42" height="2.42"/>
  <rect class="cls-1" x="2.83" y=".46" width="2.42" height="2.42"/>
  <rect class="cls-4" x="2.83" y="6.3" width="2.42" height="2.42"/>
  <rect class="cls-4" y="3.38" width="2.42" height="2.42"/>
  <rect class="cls-4" y=".46" width="2.42" height="2.42"/>
  <rect class="cls-4" y="6.3" width="2.42" height="2.42"/>
  <path class="cls-2" d="M12.8,7c-.26-.36-.39-.86-.39-1.48,0-.68.13-1.2.39-1.56.26-.36.63-.55,1.12-.55s.83.18,1.09.55c.24.36.36.88.36,1.56s-.13,1.15-.39,1.48c-.26.36-.63.55-1.12.55-.43.01-.83-.19-1.07-.55M12.44,2.12c-.4.14-.76.39-1.04.72-.5.66-.75,1.53-.75,2.6,0,1.13.25,2.01.75,2.65.5.66,1.17.99,2,.99.39,0,.78-.08,1.15-.23.35-.19.63-.47.83-.81v2.58c0,.49.4.88.88.88h.88v-6.48c0-1.21-.36-2.04-1.07-2.48-.69-.44-1.5-.67-2.32-.66-.45,0-.9.08-1.33.25"/>
  <path class="cls-2" d="M23.2,2.03c-.24,0-.47.09-.64.26-.16.17-.25.39-.25.62v3.54c0,.42-.13.72-.38.91-.24.19-.54.29-.85.29-.3,0-.6-.1-.83-.29-.24-.19-.36-.49-.36-.91V2.03h-1.82v4.06c0,1.2.31,1.99.92,2.37.61.38,1.32.6,2.04.62.74,0,1.47-.19,2.11-.57.64-.38.96-1.19.96-2.42V2.03h-.91Z"/>
  <path class="cls-2" d="M26.78,7.14c-.16-.15-.24-.37-.23-.59,0-.19.07-.38.18-.54.14-.13.36-.24.68-.32l.6-.12c.35-.07.69-.18,1.02-.32v.61c0,.46-.14.82-.42,1.08-.28.26-.66.39-1.14.39-.29,0-.52-.06-.68-.2M25.77,2.44c-.4.3-.66.75-.73,1.25h1.74c.08-.17.23-.31.42-.36.21-.07.43-.1.65-.1.25,0,.5.04.74.11.27.07.4.23.4.48,0,.33-.38.54-1.14.64-.16.02-.3.04-.42.06-.1.02-.21.03-.31.04-.66.1-1.2.29-1.63.59-.43.29-.64.79-.64,1.47,0,.73.23,1.26.7,1.58.48.32,1.06.49,1.64.48.31,0,.67-.02,1.08-.06.4-.04.8-.15,1.16-.33.37-.18.68-.46.9-.8.25-.37.38-.88.38-1.53v-2.23c0-.59-.25-1.05-.75-1.37-.49-.31-1.21-.46-2.19-.47-.87,0-1.53.19-2,.56"/>
  <path class="cls-2" d="M32.71,2.52c-.62.4-.92,1.19-.92,2.37v4.06h1.82v-4.42c0-.42.12-.72.36-.91.24-.19.53-.29.83-.29.31,0,.6.1.85.29.25.19.38.49.38.91v3.54c-.02.47.34.86.81.88.03,0,.05,0,.08,0h.91v-4.06c0-1.21-.32-2.02-.96-2.42-.63-.4-1.36-.6-2.11-.6-.73.03-1.43.25-2.04.65"/>
  <path class="cls-2" d="M39.14,0v7.65c0,.8.33,1.22,1,1.27.62.05,1.24.06,1.86.03v-1.35h-.55c-.35,0-.52-.15-.52-.44v-3.85h.18c.23,0,.46-.08.62-.25.17-.17.27-.4.26-.64v-.36h-1.07V.88c0-.24-.09-.46-.26-.62C40.52.09,40.3,0,40.08,0h-.94Z"/>
  <path class="cls-2" d="M43.42,2.03v6.92h1.58V2.91c0-.23-.08-.45-.23-.62-.13-.16-.33-.26-.54-.26h-.81Z"/>
  <path class="cls-2" d="M48.83,7c-.26-.33-.39-.82-.39-1.48,0-.71.12-1.23.36-1.56.26-.36.62-.55,1.09-.55s.86.18,1.12.55.39.89.39,1.56c0,.62-.13,1.12-.39,1.48-.24.35-.64.56-1.07.55-.49,0-.86-.18-1.12-.55M47.74,2.54c-.71.44-1.07,1.27-1.07,2.48v6.48h.88c.49,0,.88-.4.88-.88v-2.58c.19.35.48.63.83.81.36.16.75.24,1.15.23.82,0,1.48-.33,2-.99.52-.68.78-1.56.78-2.65s-.26-1.92-.78-2.6c-.28-.33-.65-.57-1.05-.72-.42-.16-.86-.24-1.31-.25-.82,0-1.62.23-2.31.66"/>
  <path class="cls-2" d="M54.34,0v8.95h1.77v-3.56c0-.61.13-1.08.39-1.43s.63-.52,1.12-.52c.43-.01.83.19,1.07.55.14.2.25.42.3.66.04.24.07.48.06.72v3.59h1.74v-4.03c0-.8-.16-1.42-.49-1.87-.31-.43-.73-.78-1.22-.99-.52-.21-1.1-.24-1.64-.1-.56.13-1.04.49-1.33.99V.88c0-.49-.4-.88-.88-.88h-.88Z"/>
  <rect class="cls-2" x="43.42" y="0" width="1.58" height="1.58"/>
  <path class="cls-2" d="M62.33,2.04v6.92h1.58V2.92c0-.23-.08-.45-.23-.63-.13-.16-.33-.26-.54-.26h-.81Z"/>
  <rect class="cls-2" x="62.33" y=".01" width="1.58" height="1.58"/>
  <path class="cls-2" d="M0,15.71l.21-.25c.32.29.62.43,1.05.43s.68-.22.68-.52h0c0-.29-.15-.45-.79-.59-.7-.15-1.02-.38-1.02-.88H.13c0-.49.42-.84,1-.84.39-.01.77.12,1.07.37l-.2.27c-.24-.21-.56-.33-.88-.33-.4,0-.65.22-.65.49H.47c0,.3.16.46.83.6s.99.4.99.86h0c0,.53-.44.87-1.04.87-.46,0-.91-.17-1.25-.49Z"/>
  <path class="cls-2" d="M3.73,15.04h0c.01-.66.55-1.17,1.2-1.16.63.01,1.13.51,1.15,1.14h0c0,.65-.51,1.18-1.16,1.18,0,0-.02,0-.02,0-.64,0-1.16-.5-1.17-1.14,0,0,0-.02,0-.03ZM5.73,15.04h0c0-.49-.36-.89-.84-.89s-.82.4-.82.87h0c0,.49.36.88.83.88.49,0,.83-.39.83-.87Z"/>
  <path class="cls-2" d="M7.65,12.98h.34v3.18h-.34v-3.18Z"/>
  <path class="cls-2" d="M9.48,13.91h.37l.76,1.87.76-1.87h.36l-.98,2.27h-.3l-.98-2.27Z"/>
  <path class="cls-2" d="M13.2,13.04h.38v.37h-.38v-.37ZM13.22,13.91h.34v2.25h-.33v-2.25Z"/>
  <path class="cls-2" d="M15.27,13.91h.34v.39c.15-.28.45-.45.77-.44.54,0,.86.36.86.9v1.4h-.34v-1.31c0-.42-.23-.68-.62-.68s-.67.28-.67.71v1.29h-.34v-2.25Z"/>
  <path class="cls-2" d="M18.87,16.55l.15-.26c.25.19.55.29.87.29.5,0,.82-.27.82-.8v-.27c-.2.26-.47.47-.88.47-.57,0-1.05-.45-1.06-1.02,0-.01,0-.02,0-.03h0c0-.59.45-1.06,1.03-1.07,0,0,.02,0,.03,0,.35,0,.68.17.88.45v-.4h.34v1.86c0,.35-.1.61-.29.8-.2.2-.5.3-.86.3-.37,0-.72-.1-1.02-.31ZM20.71,14.92h0c0-.47-.4-.77-.83-.77s-.78.3-.78.76h0c0,.43.34.77.76.77,0,0,.02,0,.02,0,.43,0,.83-.31.83-.76Z"/>
  <path class="cls-2" d="M24.78,13.11h.37l.87,2.54.84-2.55h.28l.84,2.55.87-2.54h.36l-1.09,3.07h-.29l-.84-2.47-.84,2.47h-.29l-1.09-3.07Z"/>
  <path class="cls-2" d="M30.68,12.98h.34v1.32c.16-.28.45-.45.77-.44.54,0,.86.36.86.9v1.4h-.34v-1.31c0-.42-.23-.68-.62-.68s-.67.28-.67.71v1.29h-.34v-3.18Z"/>
  <path class="cls-2" d="M34.12,15.5h0c0-.49.39-.74.96-.74.23,0,.46.03.69.1v-.07c0-.4-.24-.61-.67-.61-.24,0-.47.06-.68.16l-.1-.27c.25-.13.54-.19.82-.19.32,0,.57.09.73.25s.23.37.23.66v1.38h-.33v-.34c-.19.25-.49.39-.81.38-.42,0-.84-.24-.84-.7ZM35.78,15.33v-.21c-.21-.06-.43-.1-.66-.1-.42,0-.66.18-.66.45h0c0,.29.26.46.57.46.41,0,.75-.25.75-.6h0Z"/>
  <path class="cls-2" d="M37.85,15.56v-1.36h-.31v-.3h.31v-.68h.34v.68h.71v.3h-.71v1.32c0,.27.15.37.38.37.11,0,.23-.03.33-.08v.29c-.13.07-.26.1-.41.1-.36,0-.64-.18-.64-.64Z"/>
  <path class="cls-2" d="M42.73,13.11h.35l1.11,1.66,1.11-1.66h.35v3.05h-.34v-2.47l-1.11,1.63h-.02l-1.11-1.63v2.46h-.34v-3.05Z"/>
  <path class="cls-2" d="M47.22,15.5h0c0-.49.39-.74.96-.74.23,0,.46.03.69.1v-.07c0-.4-.24-.61-.67-.61-.24,0-.47.06-.68.16l-.1-.27c.25-.13.54-.19.82-.19.32,0,.57.09.73.25s.24.37.24.66v1.38h-.34v-.34c-.19.25-.49.39-.81.38-.42,0-.84-.24-.84-.7ZM48.87,15.33v-.21c-.21-.06-.43-.1-.66-.1-.42,0-.66.18-.66.45h0c0,.29.26.46.57.46.41,0,.75-.25.75-.6h0Z"/>
  <path class="cls-2" d="M50.94,15.56v-1.36h-.31v-.3h.31v-.68h.34v.68h.71v.3h-.71v1.32c0,.27.15.37.38.37.11,0,.23-.03.33-.08v.29c-.13.07-.26.1-.41.1-.36,0-.64-.18-.64-.64Z"/>
  <path class="cls-2" d="M53.63,15.56v-1.36h-.31v-.3h.31v-.68h.34v.68h.71v.3h-.71v1.32c0,.27.15.37.38.37.11,0,.23-.03.33-.08v.29c-.13.06-.26.1-.41.1-.36,0-.64-.18-.64-.64Z"/>
  <path class="cls-2" d="M57.14,15.92c.27,0,.53-.11.71-.32l.21.19c-.23.28-.57.43-.93.42-.62,0-1.12-.47-1.12-1.18,0-.66.46-1.18,1.08-1.18.67,0,1.05.53,1.05,1.19,0,.03,0,.07,0,.12h-1.79c.05.48.4.75.79.75ZM57.8,14.9c-.04-.41-.27-.76-.72-.76-.39,0-.68.32-.73.76h1.45Z"/>
  <path class="cls-2" d="M59.66,13.91h.34v.59c.17-.37.49-.64.92-.63v.36h-.03c-.49,0-.89.35-.89,1.03v.89h-.34v-2.25Z"/>
  <path class="cls-2" d="M62.17,15.87l.17-.24c.22.18.5.28.78.29.27,0,.47-.14.47-.36h0c0-.24-.27-.32-.56-.41-.35-.1-.74-.22-.74-.64h0c0-.4.32-.65.77-.65.29,0,.57.09.81.25l-.15.25c-.2-.13-.43-.21-.67-.22-.27,0-.44.14-.44.33h0c0,.22.28.3.58.4.35.1.72.24.72.65h0c0,.44-.35.68-.8.68-.34,0-.67-.12-.93-.33Z"/>
</svg>